<?xml version="1.0" encoding="UTF-8"?>
<svg id="Livello_1" xmlns="http://www.w3.org/2000/svg" version="1.1" viewBox="0 0 467.9 238.9">
  <!-- Generator: Adobe Illustrator 29.2.1, SVG Export Plug-In . SVG Version: 2.1.0 Build 116)  -->
  <defs>
    <style>
      .st0 {
        fill: #1d1d1b;
      }
    </style>
  </defs>
  <path class="st0" d="M450.3,37.3c0-8.8-6.7-16.2-15.5-17-8.8-.8-16.7,5.2-18.3,13.9-.4,2-.3,4-.3,6v157.3c0,4.6-.3,7.6,2,12,4.1,7.8,13.3,11.2,21.5,7.9,4.1-1.6,7.4-4.8,9.2-8.9.9-1.9,1.3-3.8,1.5-5.9.1-2.1,0-4.1,0-6.2v-17.1c0,0-.1-.2,0-.2h17.3c.1,0,.3-.1.3.1v27.9c0,4.1.2,8.1-.9,12.1-2.3,8.5-8.8,15.4-17.1,18.2-4.5,1.5-7.3,1.4-12,1.4h-12.6c-2,0-4,0-5.9-.4-2.1-.4-4-1-6-1.8-4.2-1.8-7.5-4.4-10.3-8-2.7-3.5-4.4-7.2-5.2-11.5-.6-3.3-.4-8.9-.4-12.2V28.8c0-4.6.1-7.6,1.8-12,1.7-4.3,4.1-7.6,7.6-10.6,3.5-2.9,7.1-4.7,11.5-5.6,4.1-.9,8.1-.6,12.2-.6s10.9,0,12.5,0c4.3.3,8,1.4,11.8,3.6,7.5,4.4,12.4,12.2,13,20.9.1,1.8,0,10.6,0,12.4v22.7c0,.1-.1,0-.1,0h-17.3s-.2,0-.2,0v-22.4h0Z"/>
  <path class="st0" d="M348.2,0h16.8l27.1,238.8h-19.1l-6-61.4h-20.7l-6,61.4h-19.1L348.2,0ZM348,159.3h17.2l-8.6-87.5-8.6,87.5Z"/>
  <polygon class="st0" points="15.6 60.2 15.6 238.8 0 238.8 0 0 25 0 39.7 175.8 54.4 0 79.4 0 79.4 238.8 63.9 238.8 63.9 60.2 48.5 238.8 31 238.8 15.6 60.2"/>
  <path class="st0" d="M150.7,202.4v-127.6h0V0h0s-15.3,0-15.3,0c0,0-.2-.1-.2,0v200.8c0,1.2,0,2.3,0,3.5-.3,4.8-2.6,9.1-6.4,12-7.9,6.1-19.4,3.7-24.3-4.9-1.2-2.1-1.9-4.3-2.1-6.7,0-1.1,0-2.3,0-3.5V.3c0,0,.1-.2,0-.2h-15.4s-.2-.1-.2,0v211.4c0,2.2.1,4.4.6,6.6,1,4.7,3.3,9,6.7,12.6,3.3,3.5,7.6,6.1,12.3,7.3,4.5,1.2,9,.9,13.6.9s8.4.2,13.4-1.6c4.6-1.7,8.6-4.6,11.7-8.5,2.9-3.7,4.8-8.2,5.4-12.9.1-1,.2-3,.2-5.2v-8.1h0Z"/>
  <path class="st0" d="M318.7,219.8h-51.8c0,0-.4.1-.4,0V0c0-.1-.1,0-.1,0h-16.6s-.1,0-.1,0v83.7c0,0,0,.2,0,.3v154.8h0s68.9,0,68.9,0c0,0,.2.1.2,0v-18.6c0-.1.1-.3-.1-.3"/>
  <path class="st0" d="M170.8,138.8c2.1,1.1,4.2,2,6.4,2.6,2.2.6,4.5,1,6.8,1.1s4.6-.2,6.8-.8c2.2-.6,4.4-1.5,6.5-2.6-1.9,1.4-4,2.5-6.3,3.3-1.1.4-2.3.6-3.5.8-1.2.2-2.4.2-3.6.2-2.4-.1-4.8-.6-7-1.3-2.2-.8-4.4-1.9-6.2-3.4"/>
  <path class="st0" d="M245.6,157.2c0,3.5-2.9,6.4-6.4,6.4s-6.4-2.9-6.4-6.4,2.9-6.4,6.4-6.4,6.4,2.9,6.4,6.4"/>
  <path class="st0" d="M235.1,112.3s-6,5.9-27.5,5.1c-5.4-.4-10-7.1-19.9-5.6-9.9,1.5-25,8.2-28.1,23.8,0,0,7.2-5.9,13.6-8.1,6.5-2.3,20.4-3.8,28.2-.2,5.1,2.4,5.6,5.7,11.6,4,4.4-1.2,18.7-15,22-19.1"/>
  <path class="st0" d="M172.6,131.4c0,6.6,5.3,11.9,11.9,11.9s11.9-5.3,11.9-11.9-5.3-11.9-11.9-11.9-11.9,5.3-11.9,11.9"/>
  <path class="st0" d="M150.7,75.1v14.2s9.9,1.7,23.2-3.6c13.3-5.3,15.2-5.8,24.2-10.6,9-4.7,18.4-3.3,27.4,0,9,3.3,15.8,7.1,26.8,9.2,0,0-15-6.1-21.4-10.4-6.4-4.3-14.7-11.3-25.5-11.6-10.8-.3-19.5,9.3-31.4,11.2-14.4,2.3-19.9,1.8-23.3,1.7"/>
</svg>